; NON-PLATED HOLES START AT T1
; THROUGH (PLATED) HOLES START AT T100
M48
INCH
T1C0.086614
T100C0.038000
T101C0.035000
T102C0.059055
T103C0.035433
%
T1
X003018Y006463
X003018Y010907
T100
X025095Y001042
X023095Y001042
X021095Y001042
X010493Y014093
X012574Y020034
X010574Y020034
X008495Y002118
X015574Y020034
X013574Y020034
X011574Y020034
X016574Y020034
X014574Y020034
X004509Y016099
X005703Y015099
X006898Y015089
X009305Y016089
X008101Y015099
X004509Y014099
X009305Y014089
X010493Y015093
X008495Y003118
X018080Y020042
X019080Y020042
X005703Y016099
X006898Y016089
X013127Y001050
X011127Y001050
X020080Y020042
X008101Y016099
X018127Y001050
X016127Y001050
X014127Y001050
X012127Y001050
X025080Y020042
X023080Y020042
X021080Y020042
X004509Y015099
X005703Y014099
X017127Y001050
X015127Y001050
X006898Y014089
X009305Y015089
X010493Y016093
X024080Y020042
X022080Y020042
X009574Y020034
X007574Y020034
X008574Y020034
X024095Y001042
X022095Y001042
X020095Y001042
X008495Y004118
X008101Y014099
T101
X019573Y016114
X012336Y016129
X001789Y003999
X019573Y009657
X021692Y006725
X012339Y006716
X019573Y011429
X024251Y006725
X012335Y011420
X019579Y004944
X014895Y014358
X004348Y003999
X021698Y016123
X017020Y006716
X017014Y016114
X014898Y004944
X024257Y016123
X017014Y009657
X019573Y014342
X017014Y011429
X012336Y014358
X014894Y009648
X001789Y002227
X021692Y004954
X014895Y016129
X019579Y006716
X012339Y004944
X021692Y009657
X024251Y004954
X004348Y002227
X014898Y006716
X024251Y009657
X017020Y004944
X021698Y014352
X021692Y011429
X017014Y014342
X014894Y011420
X012335Y009648
X024257Y014352
X024251Y011429
T102
X001791Y006440
X006763Y006449
X006759Y010907
X001787Y010898
X004282Y006449
X004277Y010907
T103
X021694Y012349
X024697Y017043
X015344Y012339
X015338Y017052
X021697Y017043
X020009Y017043
X012338Y017052
X015338Y007654
X017016Y007654
X017011Y012339
X020016Y007654
X024707Y007645
X020011Y012339
X012338Y007654
X021707Y007645
X017009Y017043
X012344Y012339
X024694Y012349
T00
M30
