G04 MADE WITH FRITZING*
G04 WWW.FRITZING.ORG*
G04 DOUBLE SIDED*
G04 HOLES PLATED*
G04 CONTOUR ON CENTER OF CONTOUR VECTOR*
%ASAXBY*%
%FSLAX23Y23*%
%MOIN*%
%OFA0B0*%
%SFA1.0B1.0*%
%ADD10C,0.078000*%
%ADD11C,0.099055*%
%ADD12C,0.075000*%
%ADD13C,0.074000*%
%ADD14R,0.078000X0.078000*%
%ADD15C,0.024000*%
%LNCOPPER1*%
G90*
G70*
G54D10*
X1808Y2004D03*
X1908Y2004D03*
X2008Y2004D03*
X2108Y2004D03*
X2208Y2004D03*
X2308Y2004D03*
X2408Y2004D03*
X2508Y2004D03*
X757Y2003D03*
X857Y2003D03*
X957Y2003D03*
X1057Y2003D03*
X1157Y2003D03*
X1257Y2003D03*
X1357Y2003D03*
X1457Y2003D03*
X1557Y2003D03*
X1657Y2003D03*
X2010Y104D03*
X2110Y104D03*
X2210Y104D03*
X2310Y104D03*
X2410Y104D03*
X2510Y104D03*
X1113Y105D03*
X1213Y105D03*
X1313Y105D03*
X1413Y105D03*
X1513Y105D03*
X1613Y105D03*
X1713Y105D03*
X1813Y105D03*
G54D11*
X676Y645D03*
X428Y645D03*
X179Y644D03*
X676Y1091D03*
X428Y1091D03*
X179Y1090D03*
G54D12*
X2425Y495D03*
X2169Y495D03*
X2425Y673D03*
X2169Y673D03*
X1958Y494D03*
X1702Y494D03*
X1958Y672D03*
X1702Y672D03*
X1490Y494D03*
X1234Y494D03*
X1490Y672D03*
X1234Y672D03*
X2425Y966D03*
X2169Y966D03*
X2425Y1143D03*
X2169Y1143D03*
X1957Y966D03*
X1701Y966D03*
X1957Y1143D03*
X1701Y1143D03*
X1489Y965D03*
X1234Y965D03*
X1489Y1142D03*
X1234Y1142D03*
X2426Y1435D03*
X2170Y1435D03*
X2426Y1612D03*
X2170Y1612D03*
X1957Y1434D03*
X1701Y1434D03*
X1957Y1611D03*
X1701Y1611D03*
X1490Y1436D03*
X1234Y1436D03*
X1490Y1613D03*
X1234Y1613D03*
G54D13*
X2171Y765D03*
X2471Y765D03*
X2171Y765D03*
X2471Y765D03*
X1702Y765D03*
X2002Y765D03*
X1702Y765D03*
X2002Y765D03*
X1234Y765D03*
X1534Y765D03*
X1234Y765D03*
X1534Y765D03*
X2169Y1235D03*
X2469Y1235D03*
X2169Y1235D03*
X2469Y1235D03*
X1701Y1234D03*
X2001Y1234D03*
X1701Y1234D03*
X2001Y1234D03*
X1234Y1234D03*
X1534Y1234D03*
X1234Y1234D03*
X1534Y1234D03*
X2170Y1704D03*
X2470Y1704D03*
X2170Y1704D03*
X2470Y1704D03*
X1701Y1704D03*
X2001Y1704D03*
X1701Y1704D03*
X2001Y1704D03*
X1234Y1705D03*
X1534Y1705D03*
X1234Y1705D03*
X1534Y1705D03*
G54D10*
X1049Y1609D03*
X1049Y1509D03*
X1049Y1409D03*
X931Y1609D03*
X931Y1509D03*
X931Y1409D03*
X810Y1610D03*
X810Y1510D03*
X810Y1410D03*
X690Y1609D03*
X690Y1509D03*
X690Y1409D03*
X570Y1610D03*
X570Y1510D03*
X570Y1410D03*
X451Y1610D03*
X451Y1510D03*
X451Y1410D03*
X850Y212D03*
X850Y312D03*
X850Y412D03*
G54D12*
X435Y223D03*
X179Y223D03*
X435Y400D03*
X179Y400D03*
G54D14*
X1049Y1609D03*
X931Y1609D03*
X810Y1610D03*
X690Y1609D03*
X570Y1610D03*
X451Y1610D03*
X850Y212D03*
G54D15*
X961Y1409D02*
X1019Y1409D01*
D02*
X900Y1409D02*
X840Y1410D01*
D02*
X780Y1410D02*
X720Y1409D01*
D02*
X660Y1409D02*
X600Y1410D01*
D02*
X540Y1410D02*
X481Y1410D01*
D02*
X1049Y1539D02*
X1049Y1579D01*
D02*
X931Y1539D02*
X931Y1579D01*
D02*
X810Y1540D02*
X810Y1580D01*
D02*
X690Y1539D02*
X690Y1579D01*
D02*
X570Y1540D02*
X570Y1580D01*
D02*
X451Y1540D02*
X451Y1580D01*
D02*
X2508Y1796D02*
X1049Y1796D01*
D02*
X1049Y1796D02*
X1049Y1639D01*
D02*
X2508Y1974D02*
X2508Y1796D01*
D02*
X931Y1838D02*
X931Y1639D01*
D02*
X2408Y1838D02*
X931Y1838D01*
D02*
X2408Y1974D02*
X2408Y1838D01*
D02*
X810Y1878D02*
X810Y1640D01*
D02*
X2308Y1878D02*
X810Y1878D01*
D02*
X2308Y1974D02*
X2308Y1878D01*
D02*
X690Y1918D02*
X690Y1639D01*
D02*
X2208Y1918D02*
X690Y1918D01*
D02*
X2208Y1974D02*
X2208Y1918D01*
D02*
X1461Y1613D02*
X1262Y1613D01*
D02*
X1461Y1436D02*
X1262Y1436D01*
D02*
X1929Y1611D02*
X1730Y1611D01*
D02*
X1929Y1434D02*
X1730Y1434D01*
D02*
X2397Y1612D02*
X2198Y1612D01*
D02*
X2397Y1435D02*
X2198Y1435D01*
D02*
X2397Y1143D02*
X2198Y1143D01*
D02*
X2397Y966D02*
X2198Y966D01*
D02*
X1929Y1143D02*
X1730Y1143D01*
D02*
X1929Y966D02*
X1730Y966D01*
D02*
X1461Y1142D02*
X1262Y1142D01*
D02*
X1461Y965D02*
X1262Y965D01*
D02*
X1263Y672D02*
X1461Y672D01*
D02*
X1461Y494D02*
X1263Y494D01*
D02*
X1929Y672D02*
X1731Y672D01*
D02*
X1929Y494D02*
X1731Y494D01*
D02*
X2397Y673D02*
X2198Y673D01*
D02*
X2397Y495D02*
X2198Y495D01*
D02*
X406Y400D02*
X208Y400D01*
D02*
X406Y223D02*
X208Y223D01*
G04 End of Copper1*
M02*