G04 MADE WITH FRITZING*
G04 WWW.FRITZING.ORG*
G04 DOUBLE SIDED*
G04 HOLES PLATED*
G04 CONTOUR ON CENTER OF CONTOUR VECTOR*
%ASAXBY*%
%FSLAX23Y23*%
%MOIN*%
%OFA0B0*%
%SFA1.0B1.0*%
%ADD10C,0.078000*%
%ADD11C,0.099055*%
%ADD12C,0.075000*%
%ADD13C,0.074000*%
%ADD14R,0.078000X0.078000*%
%ADD15C,0.024000*%
%LNCOPPER0*%
G90*
G70*
G54D10*
X1808Y2004D03*
X1908Y2004D03*
X2008Y2004D03*
X2108Y2004D03*
X2208Y2004D03*
X2308Y2004D03*
X2408Y2004D03*
X2508Y2004D03*
X757Y2003D03*
X857Y2003D03*
X957Y2003D03*
X1057Y2003D03*
X1157Y2003D03*
X1257Y2003D03*
X1357Y2003D03*
X1457Y2003D03*
X1557Y2003D03*
X1657Y2003D03*
X2010Y104D03*
X2110Y104D03*
X2210Y104D03*
X2310Y104D03*
X2410Y104D03*
X2510Y104D03*
X1113Y105D03*
X1213Y105D03*
X1313Y105D03*
X1413Y105D03*
X1513Y105D03*
X1613Y105D03*
X1713Y105D03*
X1813Y105D03*
G54D11*
X676Y645D03*
X428Y645D03*
X179Y644D03*
X676Y1091D03*
X428Y1091D03*
X179Y1090D03*
G54D12*
X2425Y495D03*
X2169Y495D03*
X2425Y673D03*
X2169Y673D03*
X1958Y494D03*
X1702Y494D03*
X1958Y672D03*
X1702Y672D03*
X1490Y494D03*
X1234Y494D03*
X1490Y672D03*
X1234Y672D03*
X2425Y966D03*
X2169Y966D03*
X2425Y1143D03*
X2169Y1143D03*
X1957Y966D03*
X1701Y966D03*
X1957Y1143D03*
X1701Y1143D03*
X1489Y965D03*
X1234Y965D03*
X1489Y1142D03*
X1234Y1142D03*
X2426Y1435D03*
X2170Y1435D03*
X2426Y1612D03*
X2170Y1612D03*
X1957Y1434D03*
X1701Y1434D03*
X1957Y1611D03*
X1701Y1611D03*
X1490Y1436D03*
X1234Y1436D03*
X1490Y1613D03*
X1234Y1613D03*
G54D13*
X2171Y765D03*
X2471Y765D03*
X1702Y765D03*
X2002Y765D03*
X1234Y765D03*
X1534Y765D03*
X2169Y1235D03*
X2469Y1235D03*
X1701Y1234D03*
X2001Y1234D03*
X1234Y1234D03*
X1534Y1234D03*
X2170Y1704D03*
X2470Y1704D03*
X1701Y1704D03*
X2001Y1704D03*
X1234Y1705D03*
X1534Y1705D03*
G54D10*
X1049Y1609D03*
X1049Y1509D03*
X1049Y1409D03*
X931Y1609D03*
X931Y1509D03*
X931Y1409D03*
X810Y1610D03*
X810Y1510D03*
X810Y1410D03*
X690Y1609D03*
X690Y1509D03*
X690Y1409D03*
X570Y1610D03*
X570Y1510D03*
X570Y1410D03*
X451Y1610D03*
X451Y1510D03*
X451Y1410D03*
X850Y212D03*
X850Y312D03*
X850Y412D03*
G54D12*
X435Y223D03*
X179Y223D03*
X435Y400D03*
X179Y400D03*
G54D14*
X1049Y1609D03*
X931Y1609D03*
X810Y1610D03*
X690Y1609D03*
X570Y1610D03*
X451Y1610D03*
X850Y212D03*
G54D15*
X2510Y353D02*
X2510Y134D01*
D02*
X2573Y353D02*
X2510Y353D01*
D02*
X2573Y765D02*
X2573Y353D01*
D02*
X2500Y765D02*
X2573Y765D01*
D02*
X2410Y412D02*
X2410Y134D01*
D02*
X2516Y412D02*
X2410Y412D01*
D02*
X2516Y605D02*
X2516Y412D01*
D02*
X2316Y605D02*
X2516Y605D01*
D02*
X2247Y666D02*
X2316Y605D01*
D02*
X2247Y1342D02*
X2247Y666D01*
D02*
X2001Y1342D02*
X2247Y1342D01*
D02*
X2001Y1263D02*
X2001Y1342D01*
D02*
X2310Y502D02*
X2310Y134D01*
D02*
X2242Y562D02*
X2310Y502D01*
D02*
X1884Y562D02*
X2242Y562D01*
D02*
X1779Y665D02*
X1884Y562D01*
D02*
X1779Y1342D02*
X1779Y665D01*
D02*
X1534Y1342D02*
X1779Y1342D01*
D02*
X1534Y1342D02*
X1534Y1263D01*
D02*
X2210Y417D02*
X2210Y134D01*
D02*
X2169Y417D02*
X2210Y417D01*
D02*
X2169Y467D02*
X2169Y417D01*
D02*
X2110Y134D02*
X2110Y415D01*
D02*
X2110Y415D02*
X1830Y415D01*
D02*
X1830Y415D02*
X1830Y501D01*
D02*
X1830Y501D02*
X1747Y583D01*
D02*
X1747Y583D02*
X1619Y583D01*
D02*
X1619Y583D02*
X1619Y966D01*
D02*
X1619Y966D02*
X1673Y966D01*
D02*
X2010Y134D02*
X2010Y356D01*
D02*
X2010Y356D02*
X1770Y356D01*
D02*
X1770Y356D02*
X1770Y415D01*
D02*
X1770Y415D02*
X1311Y415D01*
D02*
X1311Y415D02*
X1311Y1436D01*
D02*
X1311Y1436D02*
X1262Y1436D01*
D02*
X1813Y206D02*
X1570Y206D01*
D02*
X1570Y206D02*
X1570Y318D01*
D02*
X1813Y135D02*
X1813Y206D01*
D02*
X1570Y318D02*
X949Y318D01*
D02*
X949Y318D02*
X949Y412D01*
D02*
X949Y412D02*
X880Y412D01*
D02*
X1513Y261D02*
X949Y261D01*
D02*
X949Y261D02*
X949Y212D01*
D02*
X1513Y135D02*
X1513Y261D01*
D02*
X949Y212D02*
X880Y212D01*
D02*
X435Y80D02*
X1011Y80D01*
D02*
X1011Y80D02*
X1011Y204D01*
D02*
X435Y194D02*
X435Y80D01*
D02*
X1011Y204D02*
X1313Y204D01*
D02*
X1313Y204D02*
X1313Y135D01*
D02*
X406Y223D02*
X208Y223D01*
D02*
X676Y312D02*
X819Y312D01*
D02*
X676Y604D02*
X676Y312D01*
D02*
X406Y400D02*
X208Y400D01*
D02*
X553Y400D02*
X553Y747D01*
D02*
X553Y747D02*
X810Y747D01*
D02*
X463Y400D02*
X553Y400D01*
D02*
X810Y747D02*
X810Y1380D01*
D02*
X179Y429D02*
X179Y603D01*
D02*
X81Y644D02*
X81Y1918D01*
D02*
X81Y1918D02*
X1057Y1918D01*
D02*
X139Y644D02*
X81Y644D01*
D02*
X1057Y1918D02*
X1057Y1973D01*
D02*
X553Y805D02*
X553Y1213D01*
D02*
X553Y1213D02*
X196Y1213D01*
D02*
X428Y805D02*
X553Y805D01*
D02*
X196Y1213D02*
X196Y1878D01*
D02*
X428Y686D02*
X428Y805D01*
D02*
X196Y1878D02*
X1908Y1878D01*
D02*
X1908Y1878D02*
X1908Y1974D01*
D02*
X451Y1838D02*
X451Y1640D01*
D02*
X2008Y1838D02*
X451Y1838D01*
D02*
X2008Y1974D02*
X2008Y1838D01*
D02*
X570Y1796D02*
X570Y1640D01*
D02*
X2108Y1796D02*
X570Y1796D01*
D02*
X2108Y1974D02*
X2108Y1796D01*
D02*
X1518Y494D02*
X1673Y494D01*
D02*
X1987Y495D02*
X2141Y495D01*
D02*
X2170Y736D02*
X2170Y701D01*
D02*
X1702Y737D02*
X1702Y700D01*
D02*
X1234Y737D02*
X1234Y700D01*
D02*
X1413Y1234D02*
X1413Y765D01*
D02*
X1413Y765D02*
X1505Y765D01*
D02*
X1506Y1234D02*
X1413Y1234D01*
D02*
X1880Y1234D02*
X1880Y765D01*
D02*
X1880Y765D02*
X1973Y765D01*
D02*
X1972Y1234D02*
X1880Y1234D01*
D02*
X2349Y1235D02*
X2349Y765D01*
D02*
X2349Y765D02*
X2442Y765D01*
D02*
X2441Y1235D02*
X2349Y1235D01*
D02*
X1986Y966D02*
X2141Y966D01*
D02*
X1518Y965D02*
X1673Y966D01*
D02*
X1413Y1234D02*
X1413Y1705D01*
D02*
X1413Y1705D02*
X1505Y1705D01*
D02*
X1506Y1234D02*
X1413Y1234D01*
D02*
X1518Y1436D02*
X1673Y1434D01*
D02*
X1880Y1704D02*
X1880Y1234D01*
D02*
X1880Y1234D02*
X1972Y1234D01*
D02*
X1972Y1704D02*
X1880Y1704D01*
D02*
X1986Y1434D02*
X2141Y1435D01*
D02*
X2349Y1235D02*
X2349Y1704D01*
D02*
X2349Y1704D02*
X2441Y1704D01*
D02*
X2441Y1235D02*
X2349Y1235D01*
D02*
X2170Y1641D02*
X2170Y1676D01*
D02*
X1701Y1640D02*
X1701Y1676D01*
D02*
X1234Y1642D02*
X1234Y1676D01*
D02*
X1234Y1205D02*
X1234Y1171D01*
D02*
X1701Y1172D02*
X1701Y1205D01*
D02*
X2169Y1206D02*
X2169Y1172D01*
G04 End of Copper0*
M02*